# xmcd
#
# Track frame offsets:
#	177
#	13712
#	25222
#	39250
#	51142
#	67580
#	83047
#	93687
#	108007
#	116357
#	127522
#	142095
#	156557
#	169542
#	180792
#
# Disc length: 2642 seconds
#
# Revision: 1
# Processed by: cddbd v1.4PL0 Copyright (c) Steve Scherf et al.
# Submitted via: MusicWizard 6.0.0
#
DISCID=aa0a500f
DTITLE=Hank Wangford and The Lost Cowboys - Hard Shoulder To Cry On
DYEAR=1993
DGENRE=Country
TTITLE0=Dim Lights
TTITLE1=You're Still On My Mind
TTITLE2=Jealousy
TTITLE3=My Lips Want To Stay (But My Heart Wants To Go)
TTITLE4=Birmingham Hotel
TTITLE5=Stormy Horizons
TTITLE6=My Baby's Gone
TTITLE7=Gonna Paint This Town
TTITLE8=Jalisco
TTITLE9=What Happens?
TTITLE10=Get Rhythm
TTITLE11=The Prisoner Song
TTITLE12=Lay Down My Old Guitar
TTITLE13=I'm Coming Home
TTITLE14=End Of The Road
EXTD=(c)1993 Sincere Sounds London UK\nupc 5016578900128
EXTT0=
EXTT1=
EXTT2=
EXTT3=
EXTT4=
EXTT5=
EXTT6=
EXTT7=
EXTT8=
EXTT9=
EXTT10=
EXTT11=
EXTT12=
EXTT13=
EXTT14=
PLAYORDER=
